<?xml version="1.0" encoding="UTF-8" standalone="no"?>
<!-- Created with Inkscape (http://www.inkscape.org/) -->

<svg
   width="1200mm"
   height="628mm"
   viewBox="0 0 1200 628"
   version="1.1"
   id="svg1"
   sodipodi:docname="doggo_flathub_guidelines.svg"
   inkscape:version="1.3.2 (091e20ef0f, 2023-11-25)"
   xmlns:inkscape="http://www.inkscape.org/namespaces/inkscape"
   xmlns:sodipodi="http://sodipodi.sourceforge.net/DTD/sodipodi-0.dtd"
   xmlns:xlink="http://www.w3.org/1999/xlink"
   xmlns="http://www.w3.org/2000/svg"
   xmlns:svg="http://www.w3.org/2000/svg">
  <sodipodi:namedview
     id="namedview1"
     pagecolor="#241f31"
     bordercolor="#000000"
     borderopacity="0.25"
     inkscape:showpageshadow="2"
     inkscape:pageopacity="0.0"
     inkscape:pagecheckerboard="0"
     inkscape:deskcolor="#d1d1d1"
     inkscape:document-units="mm"
     inkscape:zoom="0.17883873"
     inkscape:cx="2088.4737"
     inkscape:cy="791.21562"
     inkscape:window-width="1920"
     inkscape:window-height="1011"
     inkscape:window-x="0"
     inkscape:window-y="0"
     inkscape:window-maximized="1"
     inkscape:current-layer="layer1" />
  <defs
     id="defs1">
    <rect
       x="2981.6165"
       y="414.07548"
       width="1347.0804"
       height="1503.7225"
       id="rect122" />
    <rect
       x="1789.3434"
       y="236.07162"
       width="1022.7659"
       height="401.26497"
       id="rect1" />
    <linearGradient
       id="a-9"
       gradientTransform="matrix(1.0420642,0,0,1.0404905,-14.723376,-4.8342371)"
       gradientUnits="userSpaceOnUse"
       x1="36.445473"
       x2="101.97435"
       y1="234.82664"
       y2="234.82664">
      <stop
         offset="0"
         stop-color="#ff8838"
         id="stop29"
         style="stop-color:#993e00;stop-opacity:1;" />
      <stop
         offset="0.11"
         stop-color="#ff8838"
         id="stop1"
         style="stop-color:#cc5200;stop-opacity:1;" />
      <stop
         offset="0.5"
         stop-color="#ff8838"
         id="stop2"
         style="stop-color:#e55c00;stop-opacity:1;" />
      <stop
         offset="1"
         stop-color="#ff8838"
         id="stop4"
         style="stop-color:#ff6600;stop-opacity:1;" />
    </linearGradient>
    <linearGradient
       id="b-0"
       gradientUnits="userSpaceOnUse"
       x1="9.9999981"
       x2="34.3395"
       y1="26.234806"
       y2="26.234806"
       gradientTransform="matrix(0.74508514,0,0,0.74508514,5.4404744,193.22645)">
      <stop
         offset="0"
         stop-color="#b38156"
         id="stop27" />
      <stop
         offset="1"
         stop-color="#865f3c"
         id="stop28" />
    </linearGradient>
    <linearGradient
       id="c-7"
       gradientUnits="userSpaceOnUse"
       x1="66.683449"
       x2="93.020035"
       y1="22.149363"
       y2="22.149363"
       gradientTransform="matrix(0.74508514,0,0,0.74508514,5.4404744,193.15244)">
      <stop
         offset="0"
         stop-color="#b48755"
         id="stop25" />
      <stop
         offset="1"
         stop-color="#865e3c"
         id="stop26" />
    </linearGradient>
    <linearGradient
       id="d-2"
       gradientTransform="matrix(1.0000235,0,0,0.99997132,-12.17289,1.50576)"
       gradientUnits="userSpaceOnUse"
       x1="60.660801"
       x2="73.676498"
       y1="218.37866"
       y2="218.37866">
      <stop
         offset="0"
         stop-color="#ff7e1f"
         id="stop23" />
      <stop
         offset="1"
         stop-color="#e56000"
         id="stop24" />
    </linearGradient>
    <linearGradient
       id="e-1"
       gradientUnits="userSpaceOnUse"
       x1="35.390385"
       x2="43.335781"
       y1="37.858997"
       y2="37.858997"
       gradientTransform="matrix(0.74508514,0,0,0.74508514,5.4404744,192.93296)">
      <stop
         offset="0"
         stop-color="#060401"
         id="stop21" />
      <stop
         offset="1"
         stop-opacity="0.2"
         id="stop22"
         style="stop-color:#000000;stop-opacity:0.31999999;" />
    </linearGradient>
    <linearGradient
       id="f-9"
       gradientUnits="userSpaceOnUse"
       x1="42.729141"
       x2="66.339867"
       y1="51.688263"
       y2="51.688263"
       gradientTransform="matrix(0.74508514,0,0,0.74508514,5.4404744,193.00544)">
      <stop
         offset="0"
         stop-opacity="0.2"
         id="stop19"
         style="stop-color:#040301;stop-opacity:1;" />
      <stop
         offset="1"
         stop-color="#060401"
         id="stop20"
         style="stop-color:#000000;stop-opacity:0.31937173;" />
    </linearGradient>
    <linearGradient
       id="h"
       x1="73.776596"
       x2="95.782135"
       xlink:href="#g-2"
       y1="59.232376"
       y2="59.232376"
       gradientTransform="matrix(0.74508514,0,0,0.74508514,5.4404744,193.30587)" />
    <linearGradient
       id="g-2"
       gradientUnits="userSpaceOnUse">
      <stop
         offset="0"
         stop-color="#ff7d1f"
         id="stop13" />
      <stop
         offset="1"
         stop-color="#e66100"
         id="stop14" />
    </linearGradient>
    <linearGradient
       id="j"
       x1="69.652245"
       x2="76.742706"
       xlink:href="#i"
       y1="72.65432"
       y2="72.65432"
       gradientTransform="matrix(0.74508514,0,0,0.74508514,5.4404744,192.93296)" />
    <linearGradient
       id="i"
       gradientUnits="userSpaceOnUse">
      <stop
         offset="0"
         stop-color="#ff7d1f"
         id="stop15" />
      <stop
         offset="1"
         stop-color="#e56100"
         id="stop16" />
    </linearGradient>
    <linearGradient
       id="k"
       x1="42.432533"
       x2="63.270424"
       xlink:href="#i"
       y1="74.461494"
       y2="74.461494"
       gradientTransform="matrix(0.74508514,0,0,0.74508514,5.4404744,193.37847)" />
    <linearGradient
       id="l"
       x1="33.944355"
       x2="36.756363"
       xlink:href="#i"
       y1="110.72595"
       y2="110.72595"
       gradientTransform="matrix(0.74508514,0,0,0.74508514,5.9461252,192.27633)" />
    <linearGradient
       id="m"
       x1="39.557362"
       x2="42.307362"
       xlink:href="#i"
       y1="111.77042"
       y2="111.77042"
       gradientTransform="matrix(0.74508514,0,0,0.74508514,5.9461252,192.27607)" />
    <linearGradient
       id="n"
       x1="61.229084"
       x2="63.870083"
       xlink:href="#g-2"
       y1="114.14894"
       y2="114.14894"
       gradientTransform="matrix(0.74508514,0,0,0.74508514,5.4404744,192.35104)" />
    <linearGradient
       id="o"
       gradientUnits="userSpaceOnUse"
       x1="67.617081"
       x2="70.06308"
       y1="113.79047"
       y2="113.79047"
       gradientTransform="matrix(0.7452297,0,0,0.74508514,5.430696,192.35051)">
      <stop
         offset="0"
         stop-color="#ff7e1f"
         id="stop17" />
      <stop
         offset="1"
         stop-color="#e56100"
         id="stop18" />
    </linearGradient>
    <linearGradient
       id="p"
       x1="84.059235"
       x2="86.902229"
       xlink:href="#g-2"
       y1="102.49067"
       y2="102.49067"
       gradientTransform="matrix(0.7450862,0,0,0.74508514,6.2599909,192.63983)" />
    <linearGradient
       id="q"
       x1="89.172729"
       x2="92.042732"
       xlink:href="#i"
       y1="103.55468"
       y2="103.55468"
       gradientTransform="matrix(0.7450862,0,0,0.74508514,6.2599909,192.63947)" />
  </defs>
  <g
     inkscape:label="Layer 1"
     inkscape:groupmode="layer"
     id="layer1">
    <rect
       style="fill:#241f31;fill-opacity:1;stroke-width:15.0825"
       id="rect2"
       width="1200"
       height="628"
       x="0"
       y="0" />
    <filter
       id="a"
       height="1"
       width="1"
       x="0"
       y="0">
      <feColorMatrix
         color-interpolation-filters="sRGB"
         values="0 0 0 0 1 0 0 0 0 1 0 0 0 0 1 0 0 0 1 0"
         id="feColorMatrix1" />
    </filter>
    <mask
       id="b">
      <g
         filter="url(#a)"
         id="g1">
        <path
           d="m -1.6 -1.6 h 19.2 v 19.2 h -19.2 z"
           fill-opacity="0.5"
           id="path1" />
      </g>
    </mask>
    <clipPath
       id="c">
      <path
         d="m 0 0 h 1600 v 1200 h -1600 z"
         id="path2" />
    </clipPath>
    <mask
       id="d">
      <g
         filter="url(#a)"
         id="g3">
        <path
           d="m -1.6 -1.6 h 19.2 v 19.2 h -19.2 z"
           fill-opacity="0.7"
           id="path3" />
      </g>
    </mask>
    <clipPath
       id="e">
      <path
         d="m 0 0 h 1600 v 1200 h -1600 z"
         id="path4" />
    </clipPath>
    <mask
       id="f">
      <g
         filter="url(#a)"
         id="g5">
        <path
           d="m -1.6 -1.6 h 19.2 v 19.2 h -19.2 z"
           fill-opacity="0.35"
           id="path5" />
      </g>
    </mask>
    <clipPath
       id="g">
      <path
         d="m 0 0 h 1600 v 1200 h -1600 z"
         id="path6" />
    </clipPath>
    <g
       mask="url(#b)"
       id="g8"
       transform="matrix(16.209264,0,0,16.209264,499.99877,185.16315)"
       style="fill:#f6f5f4">
      <g
         clip-path="url(#c)"
         transform="translate(-860,-40)"
         id="g7"
         style="fill:#f6f5f4">
        <path
           d="m 550,182 c -0.35156,0.004 -0.69531,0.10156 -1,0.28125 v 3.4375 c 0.30469,0.17969 0.64844,0.27734 1,0.28125 1.10547,0 2,-0.89453 2,-2 0,-1.10547 -0.89453,-2 -2,-2 z m 0,5 c -0.33984,0 -0.67969,0.0586 -1,0.17578 V 194 h 4 v -4 c 0,-1.65625 -1.34375,-3 -3,-3 z m 0,0"
           id="path7"
           style="fill:#f6f5f4" />
      </g>
    </g>
    <g
       mask="url(#d)"
       id="g10"
       transform="matrix(16.209264,0,0,16.209264,499.99877,185.16315)"
       style="fill:#f6f5f4">
      <g
         clip-path="url(#e)"
         transform="translate(-860,-40)"
         id="g9"
         style="fill:#f6f5f4">
        <path
           d="m 569,182 v 4 c 1.10547,0 2,-0.89453 2,-2 0,-1.10547 -0.89453,-2 -2,-2 z m 0,5 v 7 h 3 v -4 c 0,-1.65625 -1.34375,-3 -3,-3 z m 0,0"
           id="path8"
           style="fill:#f6f5f4" />
      </g>
    </g>
    <g
       mask="url(#f)"
       id="g12"
       transform="matrix(16.209264,0,0,16.209264,499.99877,185.16315)"
       style="fill:#f6f5f4">
      <g
         clip-path="url(#g)"
         transform="translate(-860,-40)"
         id="g11"
         style="fill:#f6f5f4">
        <path
           d="m 573,182.26953 v 3.44922 c 0.61328,-0.35547 0.99609,-1.00781 1,-1.71875 0,-0.71484 -0.38281,-1.375 -1,-1.73047 z m 0,4.90625 V 194 h 2 v -4 c 0,-1.26953 -0.80078,-2.40234 -2,-2.82422 z m 0,0"
           id="path10"
           style="fill:#f6f5f4" />
      </g>
    </g>
    <path
       d="m 613.38173,260 v 16.20967 c 0,4.17816 2.08877,8.61118 5.06574,11.65046 l 20.76525,20.76766 H 499.93427 v 32.41873 h 139.27845 l -20.76525,20.76828 c -2.97697,3.09993 -5.06574,7.47107 -5.06574,11.65045 v 16.20906 h 16.20669 c 5.00449,0 8.92661,-1.45806 12.15533,-4.55799 L 701,324.83808 641.74375,264.55983 c -3.22811,-3.10605 -7.15391,-4.55799 -12.15533,-4.55799 z m 0,0"
       fill="#222222"
       id="path12"
       style="fill:#f6f5f4;stroke-width:16.208"
       inkscape:label="Arrow" />
    <g
       id="g35"
       inkscape:label="DoggoOld"
       transform="matrix(4.5130624,0,0,4.5076698,-8.1766356,-765.4233)"
       style="display:inline;enable-background:new">
      <path
         d="m 29.639736,238.47512 c 0,0 -0.975195,4.84869 -0.0031,10.10795 0.977924,5.26216 1.848524,10.23074 1.848524,10.23074 0,0 -0.08404,10.32332 -0.375088,11.43803 -0.293959,1.11472 -2.41607,2.97616 -2.41607,5.00186 0,2.02862 1.290616,4.33154 4.908354,4.94274 3.617737,0.6112 6.5486,-0.64031 7.759363,-2.15668 1.740472,-2.19159 1.402855,-3.74579 1.402855,-5.36111 0,-1.61824 0.09605,-10.92598 0.486052,-12.34921 0.387095,-1.4145 0.977924,-2.22653 2.054805,-2.12757 1.076881,0.10187 2.249808,1.81905 2.345854,5.06134 0.09896,3.23355 -0.134281,8.77439 -0.230324,9.88619 -0.09896,1.11473 -0.747597,4.99223 0.03824,6.5086 0.782921,1.51636 4.333718,2.98907 7.069577,2.83191 3.582812,-0.20083 5.736574,-2.53213 5.928666,-4.34828 0.195002,-1.81906 -0.977924,-5.97232 -0.977924,-7.18891 0,-1.21367 1.367929,-9.50856 1.757935,-10.0179 0.387095,-0.50352 1.583306,-0.39582 4.199836,-1.61823 2.38369,-1.11472 3.670126,-2.27601 3.670126,-2.27601 0,0 0.0029,7.61384 -0.09314,8.41714 -0.110599,0.80912 -1.958759,2.40115 -2.232345,4.40066 -0.209555,1.51928 1.207853,4.02812 4.796486,4.13872 4.217298,0.5006 7.308237,-2.52048 8.184294,-5.04097 1.123445,-2.86101 1.00873,-5.88202 0.813727,-7.5119 -0.256123,-2.13339 -0.192026,-6.97496 -0.07561,-8.4855 0.11642,-1.52801 0.334496,-4.00647 0.427631,-4.91163 0.0087,-1.25733 -0.129443,-1.14666 -0.120913,-1.14957 0,0 3.056019,-0.0786 5.055522,-1.44651 1.999503,-1.36502 4.103788,-3.74289 5.035144,-6.67666 0.908073,-2.86684 0.79748,-4.74701 0.01162,-4.84887 -0.782921,-0.099 -4.409392,6.00725 -7.395552,6.16441 -4.741187,0.25321 -4.269687,-5.00895 -7.887425,-8.19303 -4.077595,-3.59445 -10.675673,-4.19983 -10.675673,-4.19983 0,0 1.097254,-4.24931 1.111807,-7.38974 0.04948,-13.71422 -6.158595,-18.21092 -6.158595,-18.21092 0,0 -7.759363,-5.97815 -16.557771,-5.5765 -8.798365,0.40165 -15.250919,7.64004 -15.250919,7.64004 l -4.46469,21.86068 c 0,0 -5.143543,-5.49757 3.206648,7.65202 2.229435,3.12296 2.901979,4.03633 2.901979,4.03633 z"
         fill="url(#a)"
         id="path18"
         style="display:inline;fill:url(#a-9);stroke-width:0.745085;enable-background:new"
         sodipodi:nodetypes="ccccsscscccccccscccccccccccccccccccsccccc" />
      <path
         d="m 19.711668,236.76705 c 0,0 -1.350911,7.1464 -0.04622,14.22062 1.316406,7.07031 2.503024,13.32725 2.503024,13.32725 0,0 -0.332563,15.24072 -0.473191,17.4126 -0.11328,1.58984 -3.271062,3.41943 -3.271062,6.14209 0,2.72656 0.866315,4.22081 4.286429,4.89116 4.832329,0.94714 8.389967,-0.94439 10.014967,-2.98346 1.98629,-3.74081 1.396676,-5.25612 1.396676,-7.428 0,-2.17187 0.08471,-14.6394 0.60815,-16.55347 0.519531,-1.90234 2.328966,-2.99609 3.774278,-2.85937 1.445313,0.13672 3.63825,2.44531 3.767156,6.80078 0.132812,4.34766 0.535776,12.09563 0.40687,13.59563 -0.132812,1.4961 -1.233234,6.89051 -0.178569,8.92957 1.050781,2.03516 4.711553,3.52949 8.383427,3.31855 4.808594,-0.26953 5.759879,-1.4787 6.017692,-3.92011 0.261718,-2.44531 -0.589412,-7.92477 -0.100437,-11.45513 0.01481,-0.10694 1.723525,-12.91382 2.246963,-13.59742 0.519531,-0.67578 2.964689,-0.53125 6.476408,-2.17578 3.199218,-1.49609 6.117683,-2.99218 6.117683,-2.99218 0,0 0.631087,6.43032 0.08525,13.10156 -2.158471,3.30254 -2.595071,6.22037 -2.606959,6.19409 -0.508309,2.49086 2.413027,3.8753 5.155214,4.13702 4.632813,0.45313 7.73748,-2.3462 9.030449,-7.36183 1.183596,-3.26562 0.519761,-7.73758 0.258042,-9.91336 -0.257813,-2.17188 0.139935,-9.92947 0.397748,-11.96853 0.261719,-2.03516 0.47044,-3.27344 0.6384,-4.34766 0.26172,-1.76562 1.123398,-3.64989 1.123398,-3.64989 0,0 4.53125,0 7.21484,-1.83593 2.68359,-1.83204 5.50781,-5.03125 6.75781,-8.97266 1.222656,-3.85547 0.921876,-5.03516 -0.1289,-5.16797 -1.05469,-0.13672 -5.76953,6.72266 -9.78125,6.93359 -6.363285,0.33985 -5.730472,-6.73046 -10.585941,-11.01171 -5.472657,-4.83204 -13.939233,-5.44141 -13.939233,-5.44141 0,0 1.411889,-5.70703 1.43142,-9.92969 0.0625,-18.43359 -8.59375,-24.68359 -8.59375,-24.68359 0,0 -10.414062,-8.03906 -22.222656,-7.4961 -11.808594,0.53907 -20.46875,10.26954 -20.46875,10.26954 L 8.91095,220.01069 c 0,0 -0.207948,-0.141 2.417818,4.02597 2.757812,4.34375 8.382884,12.81878 8.382884,12.81878 z"
         fill="#ffa348"
         id="path19"
         style="display:inline;enable-background:new"
         transform="matrix(0.74508514,0,0,0.74508514,16.616148,60.092183)"
         sodipodi:nodetypes="ccccsscscscccccsccccccccccccccccccccccccc" />
      <path
         d="m 24.038498,197.97928 c -7.185997,0.15135 -10.984185,6.49912 -11.097694,10.38753 -0.06112,2.28183 -0.928446,18.8658 7.91944,19.20341 3.547886,0.13679 6.187699,-4.13289 7.526524,-8.97012 1.688084,-6.09457 1.612412,-12.2066 1.807414,-13.83356 0.311422,-2.59906 0.8324,-4.50543 0.8324,-4.50543 0,0 -0.876058,-2.4128 -6.988084,-2.28183 z m 0,0"
         fill="url(#b)"
         id="path20"
         style="display:inline;fill:url(#b-0);stroke-width:0.745085;enable-background:new" />
      <path
         d="m 9.965654,183.706 c -9.648438,0.20313 -14.746094,8.72266 -14.894532,13.94141 -0.085937,3.0625 -1.25,25.32031 10.625,25.77344 4.761719,0.18359 8.304688,-5.54297 10.101563,-12.03516 2.265625,-8.18359 2.164063,-16.38672 2.425781,-18.57031 0.417969,-3.48828 1.117188,-6.04688 1.117188,-6.04688 0,0 -1.175782,-3.23828 -9.375,-3.0625 z m 0,0"
         fill="#865e3c"
         id="path21"
         style="display:inline;enable-background:new"
         transform="matrix(0.74508514,0,0,0.74508514,16.616148,60.092183)" />
      <path
         d="m 62.51516,195.4721 c 7.820484,0.30269 10.486491,3.89424 11.243218,5.98106 0.832401,2.28182 1.562933,10.42246 0.340528,15.85634 -0.992477,4.43558 -2.494289,6.6883 -6.01307,6.53696 -3.224822,-0.13679 -4.854695,-4.95365 -7.287864,-11.50225 -2.345854,-6.33614 -3.98737,-12.5704 -4.292971,-13.38243 -0.390005,-1.06524 -1.222406,-1.51927 -1.222406,-1.51927 0,0 1.405767,-2.20033 7.232565,-1.97041 z m 0,0"
         fill="url(#c)"
         id="path22"
         style="display:inline;fill:url(#c-7);stroke-width:0.745085;enable-background:new" />
      <path
         d="m 61.602372,180.30366 c 10.496094,0.40625 14.074219,5.22656 15.089844,8.03125 1.117188,3.0625 2.097656,13.98828 0.457032,21.28125 -1.332032,5.95312 -3.347657,8.97656 -8.074219,8.77344 -4.324219,-0.1836 -6.511719,-6.64844 -9.777344,-15.4375 -3.148437,-8.50391 -5.5625,-16.11719 -5.972656,-17.20704 -0.523438,-1.42968 -1.640625,-2.03906 -1.640625,-2.03906 0,0 2.097656,-3.71094 9.917968,-3.40234 z m 0,0"
         fill="#865e3c"
         id="path23"
         style="display:inline;enable-background:new"
         transform="matrix(0.74508514,0,0,0.74508514,16.616148,60.092183)" />
      <path
         d="m 53.571228,211.97802 c -3.862219,0.25029 -5.710379,4.70043 -4.889621,9.17094 0.881878,4.81396 3.92916,7.09578 7.771005,6.58644 4.199835,-0.5559 5.471719,-5.52119 4.936189,-9.27282 -0.491872,-3.41109 -2.354585,-6.84547 -7.817573,-6.48456 z m 0,0"
         fill="url(#d)"
         id="path24"
         style="display:inline;fill:url(#d-2);stroke-width:0.745085;enable-background:new" />
      <path
         d="m 49.59456,202.40131 c -5.179688,0.33594 -7.660156,6.3086 -6.558594,12.3086 1.183594,6.46094 5.273438,9.52344 10.429688,8.83984 5.636718,-0.74609 7.34375,-7.41015 6.625,-12.44531 -0.660156,-4.57813 -3.160156,-9.1875 -10.496094,-8.70313 z m 0,0"
         fill="#e66100"
         id="path25"
         style="display:inline;enable-background:new"
         transform="matrix(0.74508514,0,0,0.74508514,16.616148,60.092183)" />
      <path
         d="m 55.692216,213.34663 c 0,2.82031 -1.511718,5.17968 -3.90625,5.10937 -3.253906,-0.0976 -4.101562,-3.08203 -4.035156,-5.59375 0.07422,-2.9375 1.769531,-4.32812 4.195312,-4.26172 2.160157,0.0508 3.746094,1.92578 3.746094,4.7461 z m 0,0"
         fill="#060401"
         id="path26"
         style="display:inline;enable-background:new"
         transform="matrix(0.74508514,0,0,0.74508514,16.616148,60.092183)" />
      <path
         d="m 28.336748,214.90131 c 0,2.9375 -1.511719,5.39063 -3.90625,5.3125 -3.253907,-0.0937 -4.101563,-3.20703 -4.035157,-5.82421 0.07422,-3.0625 2.097657,-4.36719 3.996094,-4.22266 2.15625,0.16406 3.945313,1.79687 3.945313,4.73437 z m 0,0"
         fill="#060401"
         id="path27"
         style="display:inline;enable-background:new"
         transform="matrix(0.74508514,0,0,0.74508514,16.616148,60.092183)" />
      <path
         d="m 37.729438,220.92895 c 0,2.18869 -1.12636,4.01647 -2.910489,3.95827 -2.424438,-0.0728 -3.056014,-2.38951 -3.006535,-4.33954 0.0553,-2.28183 1.562933,-3.25393 2.98034,-3.14624 1.60368,0.12224 2.936684,1.33882 2.936684,3.52751 z m 0,0"
         fill="url(#e)"
         id="path28"
         style="display:inline;fill:url(#e-1);stroke-width:0.745085;enable-background:new" />
      <path
         d="m 46.984792,232.65503 c 0,0 4.429764,-0.4744 4.22603,-3.804 -0.203734,-3.32378 -3.207359,-3.54207 -5.550302,-3.48968 -2.345855,0.0553 -5.701648,1.32136 -5.349479,4.11834 0.35508,2.79989 4.176552,3.16661 4.176552,3.16661 0,0 -0.0058,2.06936 -1.324273,2.2207 -1.426139,0.15717 -3.466392,-2.11592 -4.022295,-2.6922 -0.558814,-0.57919 -1.42614,-0.36963 -1.731741,0.10478 -0.302691,0.4715 -0.101868,1.53092 0.768369,2.43026 0.867325,0.89934 2.901757,3.1637 4.942009,2.95414 2.040254,-0.20955 2.092642,-1.31845 2.901758,-1.37083 0.817848,-0.0524 0.768369,1.21366 2.79989,1.16128 1.434872,-0.0378 4.322077,-2.64855 4.843054,-3.11131 1.172927,-1.05943 1.475618,-2.11593 0.969193,-2.79989 -0.506425,-0.68106 -1.932565,0.31433 -2.698023,0.89934 -0.768369,0.57918 -2.005327,1.9442 -3.207359,2.16831 -1.996595,0.36963 -1.743383,-1.95585 -1.743383,-1.95585 z m 0,0"
         fill="url(#f)"
         id="path29"
         style="display:inline;fill:url(#f-9);stroke-width:0.745085;enable-background:new" />
      <path
         d="m 40.758622,230.95354 c 0,0 5.945313,-0.59784 5.671876,-4.79373 -0.273438,-4.18856 -4.304688,-4.46364 -7.449219,-4.39395 -3.148438,0.066 -7.65625,1.66148 -7.179688,5.18618 0.476563,3.52836 5.605469,3.9905 5.605469,3.9905 0,0 -0.01172,2.60775 -1.777344,2.79848 -1.914062,0.19805 -4.652344,-2.66645 -5.402344,-3.39266 -0.746093,-0.72988 -1.910156,-0.4658 -2.320312,0.13204 -0.40625,0.59417 -0.136719,1.92923 1.03125,3.06256 1.164062,1.13333 3.894531,3.98683 6.632812,3.72275 2.738282,-0.26408 2.808594,-1.66148 3.894532,-1.7275 1.097656,-0.066 1.03125,1.52944 3.757812,1.46342 1.925782,-0.0477 5.800782,-3.33764 6.5,-3.92081 1.574219,-1.33505 1.980469,-2.66644 1.300782,-3.52836 -0.679688,-0.85825 -2.59375,0.39612 -3.621094,1.13333 -1.03125,0.72988 -2.691406,2.45005 -4.304688,2.73247 -2.679687,0.4658 -2.339844,-2.46472 -2.339844,-2.46472 z m 0,0"
         fill="#060401"
         id="path30"
         style="display:inline;stroke-width:0.968989;enable-background:new"
         transform="matrix(0.74508514,0,0,0.74508514,16.616148,60.092183)" />
      <path
         d="m 64.369142,228.77309 c 0,0 -0.922626,2.10137 -1.693905,3.78654 -0.931356,2.03152 -2.26436,3.8011 -2.26436,3.8011 0,0 1.507633,10.68149 10.471939,9.76178 3.207359,-0.3318 5.640527,-2.93668 5.867545,-5.70165 0.390006,-4.66551 -1.318451,-6.84547 -3.972817,-8.97594 -4.298792,-3.4402 -8.408402,-2.67183 -8.408402,-2.67183 z m 0,0"
         fill="url(#h)"
         id="path31"
         style="display:inline;fill:url(#h);stroke-width:0.745085;enable-background:new" />
      <path
         d="m 64.090654,224.92866 c 0,0 -1.238282,2.82031 -2.273438,5.08203 -1.25,2.72656 -3.039062,5.10156 -3.039062,5.10156 0,0 2.023437,14.33594 14.054687,13.10156 4.304688,-0.44531 7.570313,-3.9414 7.875,-7.65234 0.523438,-6.26172 -1.769531,-9.1875 -5.328125,-12.04687 -5.773437,-4.61719 -11.289062,-3.58594 -11.289062,-3.58594 z m 0,0"
         fill="#e66100"
         id="path32"
         style="display:inline;enable-background:new"
         transform="matrix(0.74508514,0,0,0.74508514,16.616148,60.092183)" />
      <path
         d="m 58.161069,245.10639 c -1.592037,1.51345 -0.736354,4.357 1.36793,4.66551 2.104283,0.30269 3.236463,-1.51055 3.076386,-2.8872 -0.235749,-2.13048 -2.631082,-3.49842 -4.444316,-1.77831 z m 0,0"
         fill="url(#j)"
         id="path33"
         style="display:inline;fill:url(#j);stroke-width:0.745085;enable-background:new" />
      <path
         d="m 55.758622,247.35444 c -2.136718,2.02734 -0.988281,5.84375 1.835938,6.25781 2.824219,0.40625 4.34375,-2.02734 4.128906,-3.875 -0.316406,-2.85937 -3.535156,-4.6914 -5.964844,-2.38281 z m 0,0"
         fill="#e66100"
         id="path34"
         style="display:inline;enable-background:new"
         transform="matrix(0.74508514,0,0,0.74508514,16.616148,60.092183)" />
      <path
         d="m 37.38891,242.74618 c 0,0 -1.402855,3.98737 1.562932,8.98177 1.263153,2.12465 4.074685,3.31795 6.062549,3.23937 2.095552,-0.0786 3.993191,-0.83531 5.617244,-2.93668 2.590334,-3.34706 1.853981,-8.91774 1.853981,-8.91774 0,0 -4.10379,1.7492 -7.867052,1.61823 -4.007743,-0.12806 -7.229654,-1.98495 -7.229654,-1.98495 z m 0,0"
         fill="url(#k)"
         id="path35"
         style="display:inline;fill:url(#k);stroke-width:0.745085;enable-background:new" />
      <path
         d="m 27.879716,243.58491 c 0,0 -1.882812,5.35156 2.097656,12.05859 1.695313,2.84766 5.46875,4.45313 8.136719,4.34766 2.8125,-0.10938 5.359375,-1.1211 7.539063,-3.94141 3.476562,-4.49609 2.488281,-11.97265 2.488281,-11.97265 0,0 -5.507813,2.34765 -10.558594,2.17578 -5.378906,-0.17578 -9.703125,-2.66797 -9.703125,-2.66797 z m 0,0"
         fill="#e66100"
         id="path36"
         style="display:inline;enable-background:new"
         transform="matrix(0.74508514,0,0,0.74508514,16.616148,60.092183)" />
      <path
         d="m 32.763368,272.23036 c -1.021582,-0.32306 -1.42905,1.31846 -1.498902,2.36041 -0.06985,1.04487 -0.06403,2.39824 0.846952,2.73586 0.908073,0.33762 0.727622,-1.67062 0.812026,-2.3313 0.165899,-1.2748 0.916804,-2.42735 -0.160076,-2.76497 z m 0,0"
         fill="url(#l)"
         id="path37"
         style="display:inline;fill:url(#l);stroke-width:0.745085;enable-background:new" />
      <path
         d="m 32.763368,271.94575 c -1.021582,-0.32307 -1.42905,1.31845 -1.498902,2.36041 -0.06985,1.04486 -0.06403,2.39824 0.846952,2.73585 0.908073,0.33763 0.727622,-1.67062 0.812026,-2.33129 0.165899,-1.2748 0.916804,-2.42736 -0.160076,-2.76497 z m 0,0"
         fill="#e66100"
         id="path38"
         style="display:inline;stroke-width:0.745085;enable-background:new" />
      <path
         d="m 36.771111,272.86459 c -0.611203,-0.0291 -1.257331,0.61121 -1.333004,2.4681 -0.06403,1.55419 0,2.83772 0.846952,2.90757 1.138001,0.096 0.817847,-1.4174 0.881878,-2.66891 z"
         fill="url(#m)"
         id="path39"
         style="display:inline;fill:url(#m);stroke-width:0.745085;enable-background:new"
         sodipodi:nodetypes="ccccc" />
      <path
         d="m 36.771111,272.55695 c -0.611203,-0.0262 -1.257331,0.61412 -1.333004,2.47101 -0.06403,1.5542 0,2.83481 0.846952,2.90758 1.138001,0.0931 0.817847,-1.41741 0.881878,-2.67183 0.0291,-0.71307 0.876057,-2.63982 -0.395826,-2.70676 z m 0,0"
         fill="#e66100"
         id="path40"
         style="display:inline;stroke-width:0.745085;enable-background:new" />
      <path
         d="m 52.0927,274.72951 c -0.977925,0 -1.007029,1.15256 -1.007029,2.39824 0,1.25152 -0.250303,2.79989 0.846952,2.93669 1.333004,0.16589 1.076881,-1.69391 1.076881,-2.73586 -0.0058,-0.90808 0.151345,-2.59907 -0.916804,-2.59907 z m 0,0"
         fill="url(#n)"
         id="path41"
         style="display:inline;fill:url(#n);stroke-width:0.745085;enable-background:new" />
      <path
         d="m 52.0927,274.43288 c -0.977925,0 -1.007029,1.15255 -1.007029,2.39825 0,1.25151 -0.250303,2.79989 0.846952,2.93668 1.333004,0.1659 1.076881,-1.691 1.076881,-2.73586 -0.0058,-0.90807 0.154256,-2.59907 -0.916804,-2.59907 z m 0,0"
         fill="#e66100"
         id="path42"
         style="display:inline;stroke-width:0.745085;enable-background:new" />
      <path
         d="m 56.5226,274.49323 c -0.783074,0.1659 -0.713208,1.28061 -0.687007,2.63399 0.03493,1.35338 -0.16011,2.78534 0.94609,2.67184 0.943181,-0.10187 0.88205,-1.69391 0.847117,-2.91049 -0.02911,-1.05069 0.101888,-2.6631 -1.1062,-2.39534 z m 0,0"
         fill="url(#o)"
         id="path43"
         style="display:inline;fill:url(#o);stroke-width:0.745157;enable-background:new" />
      <path
         d="m 56.522464,274.20296 c -0.782922,0.16589 -0.71307,1.28061 -0.686875,2.63399 0.03492,1.35338 -0.160077,2.78533 0.945908,2.67183 0.942999,-0.10187 0.881879,-1.691 0.846953,-2.90758 -0.0291,-1.05069 0.104777,-2.6631 -1.105986,-2.39824 z m 0,0"
         fill="#e66100"
         id="path44"
         style="display:inline;stroke-width:0.745085;enable-background:new" />
      <path
         d="m 70.587694,266.59535 c -0.672325,-0.13679 -1.437782,0.45113 -1.632789,2.02861 -0.157163,1.35338 -0.09604,2.54086 1.041959,2.79989 0.585008,0.1368 0.68979,-1.4174 0.715983,-2.53213 0.03494,-0.96628 0.721799,-2.12465 -0.125153,-2.29637 z m 0,0"
         fill="url(#p)"
         id="path45"
         style="display:inline;fill:url(#p);stroke-width:0.745085;enable-background:new" />
      <path
         d="m 70.587694,266.29867 c -0.672325,-0.13679 -1.437782,0.45404 -1.629874,2.02862 -0.160078,1.35337 -0.09896,2.54085 1.039044,2.79988 0.585008,0.13679 0.68979,-1.4174 0.715983,-2.53212 0.03494,-0.96628 0.721799,-2.12466 -0.125153,-2.29638 z m 0,0"
         fill="#e66100"
         id="path46"
         style="display:inline;stroke-width:0.745085;enable-background:new" />
      <path
         d="m 74.269467,267.41284 c -0.646128,-0.10769 -1.277707,0.30269 -1.443605,1.98204 -0.09896,0.97792 -0.445303,2.73586 0.727624,2.79989 0.910985,0.0437 0.841133,-1.50473 0.925536,-2.31093 0.130973,-1.27479 0.852774,-2.28182 -0.209555,-2.471 z m 0,0"
         fill="url(#q)"
         id="path47"
         style="display:inline;fill:url(#q);stroke-width:0.745085;enable-background:new" />
      <path
         d="m 74.269467,267.11943 c -0.646128,-0.10769 -1.277707,0.30269 -1.443605,1.97913 -0.09896,0.97792 -0.445303,2.73586 0.727624,2.7999 0.910985,0.0437 0.841133,-1.50473 0.922628,-2.31094 0.133881,-1.27479 0.855682,-2.28182 -0.206647,-2.46809 z m 0,0"
         fill="#e66100"
         id="path48"
         style="display:inline;stroke-width:0.745085;enable-background:new" />
    </g>
    <text
       xml:space="preserve"
       transform="matrix(0.26458333,0,0,0.26458333,0,55.033362)"
       id="text1"
       style="font-style:normal;font-variant:normal;font-weight:bold;font-stretch:normal;font-size:333.333px;font-family:Cantarell;-inkscape-font-specification:'Cantarell Bold';white-space:pre;shape-inside:url(#rect1);fill:#f6f5f4"
       inkscape:label="Doggo"><tspan
         x="1789.3438"
         y="535.40949"
         id="tspan1">Doggo</tspan></text>
    <text
       xml:space="preserve"
       transform="scale(0.26458333)"
       id="text122"
       style="font-style:normal;font-variant:normal;font-weight:bold;font-stretch:normal;font-size:1333.33px;font-family:Cantarell;-inkscape-font-specification:'Cantarell Bold';white-space:pre;shape-inside:url(#rect122);fill:#f6f5f4"
       x="282.66669"
       y="0"
       inkscape:label="QuestionMark"><tspan
         x="3357.1576"
         y="1611.4232"
         id="tspan3"><tspan
           style="text-align:center;text-anchor:middle"
           id="tspan2">?</tspan></tspan></text>
  </g>
</svg>
