<?xml version="1.0" encoding="utf-8"?><!-- Uploaded to: SVG Repo, www.svgrepo.com, Generator: SVG Repo Mixer Tools -->
<svg width="1em" height="1em" viewBox="0 0 24 24" xmlns="http://www.w3.org/2000/svg">
<style>
    .darkmode {
        svg {
            fill: #93a1a1;
        }
    }
    
    svg {
        fill: #586e75;
    }
</style>
<path d="M2.88,16.88a3,3,0,0,0,0,4.24,3,3,0,0,0,4.24,0,3,3,0,0,0-4.24-4.24Zm2.83,2.83a1,1,0,0,1-1.42-1.42,1,1,0,0,1,1.42,0A1,1,0,0,1,5.71,19.71ZM5,12a1,1,0,0,0,0,2,5,5,0,0,1,5,5,1,1,0,0,0,2,0,7,7,0,0,0-7-7ZM5,8a1,1,0,0,0,0,2,9,9,0,0,1,9,9,1,1,0,0,0,2,0,11.08,11.08,0,0,0-3.22-7.78A11.08,11.08,0,0,0,5,8Zm10.61.39A15.11,15.11,0,0,0,5,4,1,1,0,0,0,5,6,13,13,0,0,1,18,19a1,1,0,0,0,2,0A15.11,15.11,0,0,0,15.61,8.39Z"/></svg>